<?xml version="1.0" encoding="utf-8"?>
<svg xmlns="http://www.w3.org/2000/svg" width="100" height="100" viewBox="0 0 500 500">
  <title>Calendar-alt SVG Icon</title>

  <g transform="translate(-35, 2) scale(2.2, 2.4) rotate(-1.2)">
    <path fill="#6666" fill-rule="evenodd" stroke="#000" stroke-width="4" d="M118.3 50.1c16.2-43.6 55 3.1 66-5.1 11.5-8.5 2-32 6-37.5s22.6 33 15 47.5c-7.4 14.1-39 13-59.7 12.8-11.6 0-29.7-10.1-27.3-17.7zm-12.3-1C89.6 5.5 51 52.2 39.8 44c-11.5-8.5-2-32-6-37.5s-22.6 33-15 47.5c7.5 14.1 39 13 59.7 12.8 11.7 0 29.8-10.1 27.3-17.7z"/>
  </g>

  <g transform="translate(0, 20)">
    <path fill="#000" d="M 302.198 102.011 L 359.224 102.011 L 359.224 387.14 L 55.086 387.14 L 55.086 102.011 L 112.111 102.011 L 112.111 83.003 C 112.111 75.209 114.963 68.555 120.475 62.854 C 125.988 57.341 132.831 54.489 140.625 54.489 C 148.417 54.489 155.261 57.341 160.774 62.854 C 166.285 68.555 169.137 75.209 169.137 83.003 L 169.137 102.011 L 245.171 102.011 L 245.171 83.003 C 245.171 75.209 248.023 68.555 253.536 62.854 C 259.049 57.341 265.891 54.489 273.685 54.489 C 281.478 54.489 288.322 57.341 293.833 62.854 C 299.346 68.555 302.198 75.209 302.198 83.003 L 302.198 102.011 Z M 131.12 83.003 L 131.12 130.523 C 131.025 135.827 135.341 140.142 140.625 140.028 C 145.909 140.142 150.224 135.827 150.128 130.523 L 150.128 83.003 C 150.128 80.341 149.178 78.061 147.277 76.349 C 145.567 74.448 143.285 73.497 140.625 73.497 C 137.964 73.497 135.681 74.448 133.972 76.349 C 132.07 78.061 131.12 80.341 131.12 83.003 M 264.181 83.003 L 264.181 130.523 C 264.181 133.184 265.131 135.467 266.841 137.367 C 268.742 139.078 271.023 140.028 273.685 140.028 C 276.346 140.028 278.627 139.078 280.528 137.367 C 282.238 135.467 283.19 133.184 283.19 130.523 L 283.19 83.003 C 283.283 77.718 278.969 73.402 273.685 73.497 C 268.4 73.402 264.086 77.718 264.181 83.003 M 340.215 368.132 L 340.215 178.045 L 74.094 178.045 L 74.094 368.132 L 340.215 368.132 Z M 150.128 197.054 L 150.128 235.071 L 112.111 235.071 L 112.111 197.054 L 150.128 197.054 Z M 188.145 197.054 L 226.162 197.054 L 226.162 235.071 L 188.145 235.071 L 188.145 197.054 Z M 264.181 235.071 L 264.181 197.054 L 302.198 197.054 L 302.198 235.071 L 264.181 235.071 Z M 150.128 254.079 L 150.128 292.098 L 112.111 292.098 L 112.111 254.079 L 150.128 254.079 Z M 188.145 254.079 L 226.162 254.079 L 226.162 292.098 L 188.145 292.098 L 188.145 254.079 Z M 264.181 292.098 L 264.181 254.079 L 302.198 254.079 L 302.198 292.098 L 264.181 292.098 Z M 150.128 311.106 L 150.128 349.123 L 112.111 349.123 L 112.111 311.106 L 150.128 311.106 Z M 226.162 349.123 L 188.145 349.123 L 188.145 311.106 L 226.162 311.106 L 226.162 349.123 Z" id="object-0"/>

    <rect fill="#ff5400" x="111.961" y="197.215" width="38.02" height="38.019" />
    <rect fill="#ff8e00"  x="187.959" y="197.024" width="38.02" height="38.019" />
    <rect fill="#ffd200"  x="264.087" y="196.986" width="38.02" height="38.019" />
    <!-- blau -->
    <rect fill="#81e650" x="111.899" y="253.958" width="38.02" height="38.019" />
    <rect fill="#00d267"  x="188.216" y="253.941" width="38.02" height="38.019" />
    <rect fill="#00c0ff"  x="263.835" y="254.012" width="38.02" height="38.019" />

    <rect fill="#8b48fe"  x="112.226" y="310.879" width="38.02" height="38.019" />
    <rect fill="#ca41fc"  x="188.013" y="311.027" width="38.02" height="38.019" />

    <rect fill="#ff46fb"  x="264.286" y="311.25" width="38.02" height="38.019" />
    <circle fill="white" cx="140" cy="135" r="24" stroke="black" stroke-width="3"  />
    <circle fill="black" cx="141" cy="140" r="12" stroke="black" stroke-width="0"  />

    <circle fill="white" cx="270" cy="135" r="24" stroke="black" stroke-width="3"  />
    <circle fill="black" cx="270" cy="140" r="12" stroke="black" stroke-width="0"  />

  </g>
</svg>
